<?xml version="1.0" encoding="UTF-8"?>
<svg width="381px" height="327px" viewBox="0 0 381 327" version="1.1" xmlns="http://www.w3.org/2000/svg" xmlns:xlink="http://www.w3.org/1999/xlink">
    <title>Bot</title>
    <defs>
        <rect id="path-1" x="86.5640739" y="116.028893" width="207.351154" height="108.0269" rx="38"></rect>
        <filter x="-3.4%" y="-6.5%" width="106.8%" height="113.0%" filterUnits="objectBoundingBox" id="filter-2">
            <feGaussianBlur stdDeviation="7" in="SourceAlpha" result="shadowBlurInner1"></feGaussianBlur>
            <feOffset dx="0" dy="0" in="shadowBlurInner1" result="shadowOffsetInner1"></feOffset>
            <feComposite in="shadowOffsetInner1" in2="SourceAlpha" operator="arithmetic" k2="-1" k3="1" result="shadowInnerInner1"></feComposite>
            <feColorMatrix values="0 0 0 0 0.9218   0 0 0 0 0.790676768   0 0 0 0 0.1582  0 0 0 1 0" type="matrix" in="shadowInnerInner1"></feColorMatrix>
        </filter>
        <ellipse id="path-3" cx="190.239651" cy="24.0059778" rx="24.157416" ry="24.0059778"></ellipse>
        <filter x="-14.5%" y="-14.6%" width="129.0%" height="129.2%" filterUnits="objectBoundingBox" id="filter-4">
            <feGaussianBlur stdDeviation="7" in="SourceAlpha" result="shadowBlurInner1"></feGaussianBlur>
            <feOffset dx="0" dy="0" in="shadowBlurInner1" result="shadowOffsetInner1"></feOffset>
            <feComposite in="shadowOffsetInner1" in2="SourceAlpha" operator="arithmetic" k2="-1" k3="1" result="shadowInnerInner1"></feComposite>
            <feColorMatrix values="0 0 0 0 0.9218   0 0 0 0 0.790676768   0 0 0 0 0.1582  0 0 0 1 0" type="matrix" in="shadowInnerInner1"></feColorMatrix>
        </filter>
    </defs>
    <g id="Logo" stroke="none" stroke-width="1" fill="none" fill-rule="evenodd">
        <g transform="translate(-31.000000, -35.000000)" id="Logo-Large">
            <g transform="translate(31.000000, 35.000000)" id="Bot">
                <rect id="Rectangle" fill="#00CC93" x="46.301714" y="76.0189297" width="287.875874" height="250.062269" rx="48"></rect>
                <polygon id="Path" fill="#0E123B" fill-rule="nonzero" transform="translate(190.420021, 277.694149) rotate(-90.000000) translate(-190.420021, -277.694149) " points="189.619146 315.027591 189.619146 240.254925 201.047668 240.254925 201.047668 230.205506 179.792375 230.205506 179.792375 325.182793 201.047668 325.182793 201.047668 315.027591"></polygon>
                <g id="Rectangle">
                    <use fill="#FEDA2E" fill-rule="evenodd" xlink:href="#path-1"></use>
                    <use fill="black" fill-opacity="1" filter="url(#filter-2)" xlink:href="#path-1"></use>
                </g>
                <polygon id="Path" fill="#0E123B" fill-rule="nonzero" points="134.878906 146.036365 134.878906 194.048321 144.944496 194.048321 144.944496 146.036365"></polygon>
                <ellipse id="Oval" stroke="#0E123B" stroke-width="10" cx="229.495452" cy="170.042343" rx="19.157416" ry="19.0059778"></ellipse>
                <polygon id="Path" fill="#00CC93" fill-rule="nonzero" points="182.187179 38.0094649 182.187179 86.0214205 198.292123 86.0214205 198.292123 38.0094649"></polygon>
                <g id="Oval">
                    <use fill="#FEDA2E" fill-rule="evenodd" xlink:href="#path-3"></use>
                    <use fill="black" fill-opacity="1" filter="url(#filter-4)" xlink:href="#path-3"></use>
                </g>
                <path d="M5.67333254,216.144732 C21.5952658,207.233422 31.203329,191.684095 31.203329,171.588182 L31.203329,168.951162 C31.203329,148.855249 21.5952658,132.942195 5.67333254,124.030885 L0,130.941697 C12.1702134,139.853007 19.7651589,152.219723 19.7651589,169.042094 L19.7651589,171.588182 C19.7651589,188.410553 12.1702134,200.32261 0,209.142988 L5.67333254,216.144732 Z" id="Path" fill="#86889E" fill-rule="nonzero" transform="translate(15.601664, 170.087809) scale(-1, 1) translate(-15.601664, -170.087809) "></path>
                <path d="M354.949305,216.144732 C370.871238,207.233422 380.479302,191.684095 380.479302,171.588182 L380.479302,168.951162 C380.479302,148.855249 370.871238,132.942195 354.949305,124.030885 L349.275973,130.941697 C361.446186,139.853007 369.041132,152.219723 369.041132,169.042094 L369.041132,171.588182 C369.041132,188.410553 361.446186,200.32261 349.275973,209.142988 L354.949305,216.144732 Z" id="Path" fill="#86889E" fill-rule="nonzero"></path>
            </g>
        </g>
    </g>
</svg>