<?xml version="1.0" encoding="UTF-8"?>
<svg width="993px" height="358px" viewBox="0 0 993 358" version="1.1" xmlns="http://www.w3.org/2000/svg" xmlns:xlink="http://www.w3.org/1999/xlink">
    <title>Logo Large</title>
    <defs>
        <rect id="path-1" x="86.5640739" y="116.028893" width="207.351154" height="108.0269" rx="38"></rect>
        <filter x="-3.4%" y="-6.5%" width="106.8%" height="113.0%" filterUnits="objectBoundingBox" id="filter-2">
            <feGaussianBlur stdDeviation="7" in="SourceAlpha" result="shadowBlurInner1"></feGaussianBlur>
            <feOffset dx="0" dy="0" in="shadowBlurInner1" result="shadowOffsetInner1"></feOffset>
            <feComposite in="shadowOffsetInner1" in2="SourceAlpha" operator="arithmetic" k2="-1" k3="1" result="shadowInnerInner1"></feComposite>
            <feColorMatrix values="0 0 0 0 0.9218   0 0 0 0 0.790676768   0 0 0 0 0.1582  0 0 0 1 0" type="matrix" in="shadowInnerInner1"></feColorMatrix>
        </filter>
        <ellipse id="path-3" cx="190.239651" cy="24.0059778" rx="24.157416" ry="24.0059778"></ellipse>
        <filter x="-14.5%" y="-14.6%" width="129.0%" height="129.2%" filterUnits="objectBoundingBox" id="filter-4">
            <feGaussianBlur stdDeviation="7" in="SourceAlpha" result="shadowBlurInner1"></feGaussianBlur>
            <feOffset dx="0" dy="0" in="shadowBlurInner1" result="shadowOffsetInner1"></feOffset>
            <feComposite in="shadowOffsetInner1" in2="SourceAlpha" operator="arithmetic" k2="-1" k3="1" result="shadowInnerInner1"></feComposite>
            <feColorMatrix values="0 0 0 0 0.9218   0 0 0 0 0.790676768   0 0 0 0 0.1582  0 0 0 1 0" type="matrix" in="shadowInnerInner1"></feColorMatrix>
        </filter>
    </defs>
    <g id="Logo" stroke="none" stroke-width="1" fill="none" fill-rule="evenodd">
        <g transform="translate(-31.000000, -35.000000)" id="Logo-Large">
            <g transform="translate(31.000000, 35.000000)">
                <g id="Bot">
                    <rect id="Rectangle" fill="#00CC93" x="46.301714" y="76.0189297" width="287.875874" height="250.062269" rx="48"></rect>
                    <polygon id="Path" fill="#0E123B" fill-rule="nonzero" transform="translate(190.420021, 277.694149) rotate(-90.000000) translate(-190.420021, -277.694149) " points="189.619146 315.027591 189.619146 240.254925 201.047668 240.254925 201.047668 230.205506 179.792375 230.205506 179.792375 325.182793 201.047668 325.182793 201.047668 315.027591"></polygon>
                    <g id="Rectangle">
                        <use fill="#FEDA2E" fill-rule="evenodd" xlink:href="#path-1"></use>
                        <use fill="black" fill-opacity="1" filter="url(#filter-2)" xlink:href="#path-1"></use>
                    </g>
                    <polygon id="Path" fill="#0E123B" fill-rule="nonzero" points="134.878906 146.036365 134.878906 194.048321 144.944496 194.048321 144.944496 146.036365"></polygon>
                    <ellipse id="Oval" stroke="#0E123B" stroke-width="10" cx="229.495452" cy="170.042343" rx="19.157416" ry="19.0059778"></ellipse>
                    <polygon id="Path" fill="#00CC93" fill-rule="nonzero" points="182.187179 38.0094649 182.187179 86.0214205 198.292123 86.0214205 198.292123 38.0094649"></polygon>
                    <g id="Oval">
                        <use fill="#FEDA2E" fill-rule="evenodd" xlink:href="#path-3"></use>
                        <use fill="black" fill-opacity="1" filter="url(#filter-4)" xlink:href="#path-3"></use>
                    </g>
                    <path d="M5.67333254,216.144732 C21.5952658,207.233422 31.203329,191.684095 31.203329,171.588182 L31.203329,168.951162 C31.203329,148.855249 21.5952658,132.942195 5.67333254,124.030885 L0,130.941697 C12.1702134,139.853007 19.7651589,152.219723 19.7651589,169.042094 L19.7651589,171.588182 C19.7651589,188.410553 12.1702134,200.32261 0,209.142988 L5.67333254,216.144732 Z" id="Path" fill="#86889E" fill-rule="nonzero" transform="translate(15.601664, 170.087809) scale(-1, 1) translate(-15.601664, -170.087809) "></path>
                    <path d="M354.949305,216.144732 C370.871238,207.233422 380.479302,191.684095 380.479302,171.588182 L380.479302,168.951162 C380.479302,148.855249 370.871238,132.942195 354.949305,124.030885 L349.275973,130.941697 C361.446186,139.853007 369.041132,152.219723 369.041132,169.042094 L369.041132,171.588182 C369.041132,188.410553 361.446186,200.32261 349.275973,209.142988 L354.949305,216.144732 Z" id="Path" fill="#86889E" fill-rule="nonzero"></path>
                </g>
                <g id="Text" transform="translate(510.725795, 36.430898)" fill="#86889E" fill-rule="nonzero">
                    <path d="M57.4135959,120.993899 C85.6787507,120.993899 103.344473,103.036167 109.527475,85.5200184 L98.6336134,80.3682101 C92.3033964,97.4427748 79.0541051,109.512726 57.8552389,109.512726 C31.7982992,109.512726 12.660434,89.1998815 12.660434,61.8217 C12.660434,34.001935 33.2704427,14.8666469 57.7080245,14.8666469 C81.7039633,14.8666469 93.7755399,29.5860993 98.486399,43.7167736 L109.380261,38.7121598 C103.93333,21.1960114 86.2676081,3.38547405 58.0024532,3.38547405 C26.4985827,3.38547405 0,27.525376 0,62.5576727 C0,97.2955803 25.6152966,120.993899 57.4135959,120.993899 Z" id="Path"></path>
                    <path d="M162.966284,121.141093 C185.931722,121.141093 203.744658,103.47775 203.744658,80.2210155 C203.744658,57.7002534 185.931722,39.889716 163.260712,39.889716 C140.000845,39.889716 122.482338,57.5530589 122.482338,80.8097936 C122.482338,103.183361 140.14806,121.141093 162.966284,121.141093 Z M163.260712,110.984671 C146.036634,110.984671 134.259486,96.7068022 134.259486,80.2210155 C134.259486,63.7352289 145.889419,49.8989436 162.966284,49.8989436 C180.043148,49.8989436 191.96751,64.324007 191.96751,80.8097936 C191.96751,97.1483858 180.043148,110.984671 163.260712,110.984671 Z" id="Shape"></path>
                    <path d="M218.318879,80.3682101 C218.318879,101.858611 232.59867,120.993899 255.122466,120.993899 C270.285544,120.993899 279.707262,113.045394 285.74305,103.036167 L285.74305,119.816342 L296.931341,119.816342 L296.931341,0 L285.595836,0 L285.595836,57.7002534 C279.265619,48.4269984 270.285544,39.889716 255.122466,39.889716 C232.893099,39.889716 218.318879,59.9081712 218.318879,80.3682101 Z M257.477895,110.837477 C240.253816,110.837477 229.948812,96.8539967 229.948812,80.6625991 C229.948812,63.7352289 240.253816,50.0461381 257.477895,50.0461381 C273.818688,50.0461381 285.74305,64.618396 285.74305,80.2210155 C285.74305,96.4124132 274.113117,110.837477 257.477895,110.837477 Z" id="Shape"></path>
                    <path d="M392.473453,84.0480732 C392.620667,82.870517 392.620667,81.5457663 392.620667,80.2210155 C392.620667,57.2586698 379.813019,39.889716 355.522651,39.889716 C333.440499,39.889716 317.246921,59.0250041 317.246921,80.3682101 C317.246921,103.036167 334.323785,121.141093 357.142009,121.141093 C370.980158,121.141093 383.640592,113.928562 390.412452,100.828249 L381.87402,95.234857 C377.457589,104.213723 368.477514,110.984671 356.994795,110.984671 C341.684502,110.984671 329.76014,99.3563037 328.876854,84.0480732 L392.473453,84.0480732 Z M329.024069,74.3332346 C330.937855,61.232922 341.831717,49.8989436 355.522651,49.8989436 C370.538515,49.8989436 379.51859,60.0553658 380.990734,74.3332346 L329.024069,74.3332346 Z" id="Shape"></path>
                    <path d="M6.77186002,167.603629 L6.77186002,282.856942 L52.2610937,282.856942 C79.7901768,282.856942 93.1866825,269.167851 93.1866825,250.621341 C93.1866825,241.495281 88.770252,228.394968 71.2517446,222.801576 C84.942679,216.619406 87.886966,204.107871 87.886966,197.925701 C87.886966,178.937608 72.8711024,167.603629 50.7889502,167.603629 L6.77186002,167.603629 Z M24.7320105,216.325017 L24.7320105,183.942222 L48.4335206,183.942222 C63.8910272,183.942222 69.7796011,191.007559 69.7796011,199.83923 C69.7796011,208.670902 63.1549554,216.325017 47.4030202,216.325017 L24.7320105,216.325017 Z M24.7320105,266.51835 L24.7320105,232.222026 L51.3778076,232.222026 C68.0130289,232.222026 75.0793177,239.728946 75.0793177,249.149396 C75.0793177,259.158623 67.5713859,266.51835 52.5555224,266.51835 L24.7320105,266.51835 Z" id="Shape"></path>
                    <path d="M128.518126,204.255066 L110.999619,204.255066 L110.999619,252.53487 C110.999619,270.492602 120.715766,284.476081 140.442488,284.476081 C146.625491,284.476081 156.930495,282.415358 164.438427,272.258936 L164.438427,282.856942 L181.515292,282.856942 L181.515292,204.255066 L163.996784,204.255066 L163.996784,247.97184 C163.996784,259.894596 156.930495,267.8431 145.889419,267.8431 C133.817843,267.8431 128.518126,259.453012 128.518126,248.266229 L128.518126,204.255066 Z" id="Path"></path>
                    <path d="M199.622656,243.408809 C199.622656,264.604821 215.66902,284.034498 238.34003,284.034498 C244.670247,284.034498 258.508396,280.796218 264.691398,270.639796 L264.691398,282.856942 L281.768263,282.856942 L281.768263,163.040599 L264.249755,163.040599 L264.249755,215.44185 C258.361181,206.168595 245.700747,202.783121 238.781673,202.783121 C214.196877,202.783121 199.622656,223.684743 199.622656,243.408809 Z M264.544184,243.408809 C264.544184,256.950706 255.122466,268.137489 240.989888,268.137489 C226.857311,268.137489 217.435592,256.950706 217.435592,243.408809 C217.435592,229.866913 226.710096,218.532935 240.989888,218.532935 C255.122466,218.532935 264.544184,229.866913 264.544184,243.408809 Z" id="Shape"></path>
                    <path d="M299.875628,243.408809 C299.875628,264.604821 315.921992,284.034498 338.593001,284.034498 C344.923218,284.034498 358.761367,280.796218 364.94437,270.639796 L364.94437,282.856942 L382.021234,282.856942 L382.021234,163.040599 L364.502726,163.040599 L364.502726,215.44185 C358.614153,206.168595 345.953719,202.783121 339.034644,202.783121 C314.449848,202.783121 299.875628,223.684743 299.875628,243.408809 Z M364.797155,243.408809 C364.797155,256.950706 355.375437,268.137489 341.242859,268.137489 C327.110282,268.137489 317.688564,256.950706 317.688564,243.408809 C317.688564,229.866913 326.963068,218.532935 341.242859,218.532935 C355.375437,218.532935 364.797155,229.866913 364.797155,243.408809 Z" id="Shape"></path>
                    <polygon id="Path" points="440.612545 255.773149 416.174963 204.255066 396.153811 204.255066 431.190826 274.02527 409.550317 321.569102 428.246539 321.569102 482.274205 204.255066 463.283554 204.255066"></polygon>
                </g>
            </g>
        </g>
    </g>
</svg>